<svg width="60" height="60" viewBox="0 0 60 60" fill="none" xmlns="http://www.w3.org/2000/svg">
<path d="M10 30C10 27.6425 10 26.465 10.7325 25.7325C11.465 25 12.6425 25 15 25H45C47.3575 25 48.535 25 49.2675 25.7325C50 26.465 50 27.6425 50 30V45.095C50 46.045 50 46.5225 49.9275 46.945C49.7873 47.7577 49.4482 48.5232 48.9405 49.1731C48.4328 49.823 47.7721 50.3373 47.0175 50.67C46.6275 50.845 46.165 50.96 45.2425 51.19C42.1475 51.965 40.6 52.35 39.0525 52.635C33.0675 53.735 26.9325 53.735 20.945 52.635C19.4 52.35 17.8525 51.9625 14.76 51.19C13.835 50.96 13.3725 50.8425 12.985 50.6725C12.2293 50.3396 11.5677 49.8248 11.0595 49.1739C10.5513 48.523 10.2122 47.7564 10.0725 46.9425C10 46.525 10 46.05 10 45.0925V30Z" fill="white" fill-opacity="0.25" style="fill:white;fill-opacity:0.25;"/>
<path d="M41.25 25V22.5C41.25 19.5163 40.0647 16.6548 37.955 14.545C35.8452 12.4353 32.9837 11.25 30 11.25C27.0163 11.25 24.1548 12.4353 22.045 14.545C19.9353 16.6548 18.75 19.5163 18.75 22.5V25" stroke="white" style="stroke:white;stroke-opacity:1;" stroke-width="2"/>
<path d="M30 42.5C32.7614 42.5 35 40.2614 35 37.5C35 34.7386 32.7614 32.5 30 32.5C27.2386 32.5 25 34.7386 25 37.5C25 40.2614 27.2386 42.5 30 42.5Z" fill="white" style="fill:white;fill-opacity:1;"/>
<path d="M30 40V46.25" stroke="white" style="stroke:white;stroke-opacity:1;" stroke-width="2" stroke-linecap="round"/>
</svg>
