<svg width="120" height="120" viewBox="0 0 120 120" fill="none" xmlns="http://www.w3.org/2000/svg">
<path d="M20.1 66.9644C20.327 66.6083 20.6219 66.3004 20.9679 66.0584C21.3139 65.8163 21.7043 65.6448 22.1166 65.5537C22.5289 65.4625 22.9552 65.4535 23.371 65.5272C23.7868 65.6009 24.184 65.7557 24.54 65.9829C27.4908 67.8737 30.75 69.2329 34.17 69.9987L34.3328 70.0415L34.4742 70.0672C36.1028 70.4101 37.7728 70.6172 39.4842 70.6887C39.0299 72.7941 38.7432 74.9322 38.6271 77.0829C36.6511 76.9715 34.6874 76.6991 32.7557 76.2687C28.6116 75.3325 24.6605 73.6868 21.0771 71.4044C20.7214 71.177 20.4139 70.8819 20.1723 70.5357C19.9306 70.1895 19.7596 69.7991 19.6688 69.3868C19.5781 68.9745 19.5694 68.5483 19.6434 68.1327C19.7174 67.7171 19.8725 67.3201 20.1 66.9644ZM40.7142 15.0001C47.523 15.0001 54.0538 17.7004 58.8743 22.5089C63.6948 27.3174 66.4115 33.8414 66.4285 40.6501C60.4271 42.6539 54.9739 46.026 50.4999 50.5C46.0259 54.974 42.6538 60.4272 40.65 66.4287C33.8301 66.4201 27.293 63.7028 22.4766 58.8744C17.6603 54.046 14.9593 47.5021 14.9678 40.6822C14.9763 33.8624 17.6937 27.3252 22.5221 22.5089C27.3505 17.6926 33.8944 14.9916 40.7142 15.0001ZM7.58139 44.7001C8.41336 44.5177 9.28372 44.673 10.0013 45.1318C10.7189 45.5906 11.225 46.3155 11.4085 47.1472C12.1628 50.563 13.5085 53.833 15.3814 56.7858C15.8378 57.5064 15.9892 58.3788 15.8023 59.2111C15.6154 60.0434 15.1056 60.7673 14.385 61.2237C13.6643 61.68 12.7919 61.8314 11.9597 61.6446C11.1274 61.4577 10.4035 60.9479 9.9471 60.2272C7.67942 56.6354 6.04971 52.6786 5.12996 48.5315C5.03907 48.119 5.0304 47.6925 5.10444 47.2766C5.17848 46.8607 5.33378 46.4635 5.56145 46.1076C5.78913 45.7518 6.08472 45.4443 6.43132 45.2028C6.77791 44.9613 7.16872 44.7905 7.58139 44.7001ZM67.05 20.2115C67.4065 19.9855 67.8041 19.832 68.2199 19.7597C68.6358 19.6873 69.0619 19.6976 69.4737 19.79C69.8856 19.8823 70.2753 20.0549 70.6205 20.2978C70.9657 20.5407 71.2597 20.8493 71.4857 21.2058C73.7571 24.793 75.3857 28.7572 76.2985 32.9015L76.3157 32.9615L76.3585 33.1415C76.7357 34.933 76.9785 36.7615 77.0871 38.6272C74.9349 38.7431 72.7953 39.0298 70.6885 39.4844C70.62 37.7701 70.4128 36.0987 70.0671 34.4701L70.0585 34.4358L70.0157 34.2858C69.2667 30.8663 67.925 27.6042 66.0514 24.6472C65.8256 24.2904 65.6723 23.8927 65.6003 23.4766C65.5283 23.0606 65.539 22.6344 65.6317 22.2225C65.7244 21.8106 65.8974 21.421 66.1408 21.0759C66.3841 20.7309 66.6931 20.4371 67.05 20.2115ZM10.0285 21.0772C10.4877 20.3589 11.2135 19.8524 12.0462 19.6691C12.8788 19.4859 13.7502 19.6409 14.4685 20.1001C15.1869 20.5593 15.6934 21.2851 15.8767 22.1177C16.0599 22.9504 15.9049 23.8217 15.4457 24.5401C13.5564 27.4912 12.1987 30.7505 11.4342 34.1701C11.2467 35.0021 10.7363 35.7256 10.0154 36.1813C9.29443 36.637 8.42198 36.7876 7.58996 36.6001C6.75794 36.4125 6.0345 35.9022 5.57878 35.1812C5.12307 34.4603 4.97242 33.5878 5.15996 32.7558C6.0975 28.6114 7.74462 24.6604 10.0285 21.0772ZM44.8328 7.5901C45.02 6.75878 45.5297 6.03582 46.2498 5.58015C46.9698 5.12448 47.8414 4.97339 48.6728 5.16009C52.8172 6.09763 56.7683 7.74475 60.3514 10.0287C61.0498 10.4962 61.5373 11.2186 61.7095 12.0412C61.8817 12.8638 61.7249 13.7211 61.2726 14.4295C60.8204 15.1378 60.1087 15.6409 59.29 15.8309C58.4713 16.0208 57.6108 15.8826 56.8928 15.4458C53.9417 13.5565 50.6825 12.1989 47.2628 11.4344C46.8507 11.3417 46.461 11.1687 46.1158 10.9253C45.7706 10.6819 45.4768 10.3729 45.2511 10.0159C45.0254 9.65883 44.8723 9.26083 44.8005 8.8446C44.7288 8.42837 44.7397 8.00208 44.8328 7.5901ZM32.9014 5.1301C33.734 4.94653 34.6054 5.10122 35.3239 5.56015C36.0425 6.01908 36.5492 6.74465 36.7328 7.57724C36.9164 8.40983 36.7617 9.28124 36.3028 9.99977C35.8438 10.7183 35.1183 11.2251 34.2857 11.4087C30.8641 12.1598 27.6005 13.5044 24.6428 15.3815C23.9222 15.8373 23.05 15.9882 22.2181 15.8009C21.3863 15.6136 20.6629 15.1036 20.2071 14.383C19.7513 13.6623 19.6005 12.7901 19.7877 11.9583C19.975 11.1264 20.485 10.403 21.2057 9.94724C24.7935 7.67179 28.7517 6.04151 32.9014 5.1301Z" fill="url(#paint0_linear_2858_189)" style=""/>
<path d="M79.2855 115.715C99.4044 115.715 115.714 99.4049 115.714 79.286C115.714 59.167 99.4044 42.8574 79.2855 42.8574C59.1666 42.8574 42.8569 59.167 42.8569 79.286C42.8569 99.4049 59.1666 115.715 79.2855 115.715Z" fill="url(#paint1_radial_2858_189)" style=""/>
<path d="M97.6287 67.3717C98.2306 67.9744 98.5687 68.7913 98.5687 69.6431C98.5687 70.4949 98.2306 71.3118 97.6287 71.9145L77.2715 92.2717C76.6689 92.8736 75.8519 93.2117 75.0001 93.2117C74.1483 93.2117 73.3314 92.8736 72.7287 92.2717L60.943 80.486C60.6272 80.1917 60.3739 79.8368 60.1982 79.4426C60.0225 79.0483 59.928 78.6226 59.9204 78.191C59.9128 77.7595 59.9922 77.3308 60.1539 76.9305C60.3155 76.5303 60.5561 76.1667 60.8614 75.8615C61.1666 75.5563 61.5302 75.3157 61.9304 75.154C62.3306 74.9923 62.7593 74.913 63.1909 74.9206C63.6225 74.9282 64.0481 75.0226 64.4424 75.1983C64.8367 75.374 65.1915 75.6273 65.4858 75.9431L75.0001 85.4574L93.0858 67.3717C93.6885 66.7697 94.5055 66.4316 95.3572 66.4316C96.209 66.4316 97.026 66.7697 97.6287 67.3717Z" fill="url(#paint2_linear_2858_189)" fill-opacity="0.95" style=""/>
<defs>
<linearGradient id="paint0_linear_2858_189" x1="14.73" y1="30.1972" x2="75.1585" y2="59.1472" gradientUnits="userSpaceOnUse">
<stop stop-color="#8B52F4" style="stop-color:#8B52F4;stop-color:color(display-p3 0.5451 0.3216 0.9569);stop-opacity:1;"/>
<stop offset="0.395" stop-color="#6D37CD" style="stop-color:#6D37CD;stop-color:color(display-p3 0.4275 0.2157 0.8039);stop-opacity:1;"/>
<stop offset="0.862" stop-color="#4B20A0" style="stop-color:#4B20A0;stop-color:color(display-p3 0.2941 0.1255 0.6275);stop-opacity:1;"/>
</linearGradient>
<radialGradient id="paint1_radial_2858_189" cx="0" cy="0" r="1" gradientUnits="userSpaceOnUse" gradientTransform="translate(42.8587 45.5689) rotate(40.385) scale(95.6494 80.2659)">
<stop stop-color="#FFC470" style="stop-color:#FFC470;stop-color:color(display-p3 1.0000 0.7686 0.4392);stop-opacity:1;"/>
<stop offset="0.251" stop-color="#FF835C" style="stop-color:#FF835C;stop-color:color(display-p3 1.0000 0.5137 0.3608);stop-opacity:1;"/>
<stop offset="0.584" stop-color="#F24A9D" style="stop-color:#F24A9D;stop-color:color(display-p3 0.9490 0.2902 0.6157);stop-opacity:1;"/>
<stop offset="0.871" stop-color="#B339F0" style="stop-color:#B339F0;stop-color:color(display-p3 0.7020 0.2235 0.9412);stop-opacity:1;"/>
<stop offset="1" stop-color="#C354FF" style="stop-color:#C354FF;stop-color:color(display-p3 0.7647 0.3294 1.0000);stop-opacity:1;"/>
</radialGradient>
<linearGradient id="paint2_linear_2858_189" x1="82.8387" y1="105.772" x2="60.7672" y2="71.7131" gradientUnits="userSpaceOnUse">
<stop offset="0.024" stop-color="#FFC8D7" style="stop-color:#FFC8D7;stop-color:color(display-p3 1.0000 0.7843 0.8431);stop-opacity:1;"/>
<stop offset="0.807" stop-color="white" style="stop-color:white;stop-opacity:1;"/>
</linearGradient>
</defs>
</svg>
