<svg width="126" height="126" viewBox="0 0 126 126" fill="none" xmlns="http://www.w3.org/2000/svg">
<path d="M30.6441 53.1933C19.0902 55.9407 10.4963 66.3295 10.4963 78.7231C10.4963 93.2159 22.2444 104.964 36.7372 104.964C39.2222 104.964 41.6285 104.618 43.9088 103.972M94.6114 53.1933C106.165 55.9407 114.757 66.3295 114.757 78.7231C114.757 93.2159 103.008 104.964 88.5157 104.964C86.0307 104.964 83.6244 104.618 81.3467 103.972M94.4671 52.4822C94.4671 35.0924 80.3679 20.9932 62.9781 20.9932C45.5882 20.9932 31.489 35.0924 31.489 52.4822M44.78 73.1626L62.9781 54.9069L81.693 73.4749M62.9781 99.7158V64.1909" stroke="white" style="stroke:white;stroke-opacity:1;" stroke-width="10" stroke-linecap="round" stroke-linejoin="round"/>
</svg>
