<svg width="17" height="17" viewBox="0 0 17 17" fill="none" xmlns="http://www.w3.org/2000/svg">
<path d="M8.5 15.5837C8.33473 15.5837 8.19306 15.5364 8.07501 15.442C7.95695 15.3475 7.86841 15.2236 7.80938 15.0701C7.58507 14.409 7.30174 13.7892 6.95938 13.2107C6.62882 12.6323 6.16251 11.9535 5.56042 11.1743C4.95834 10.3951 4.46841 9.65137 4.09063 8.94303C3.72466 8.2347 3.54167 7.3788 3.54167 6.37533C3.54167 4.99408 4.0198 3.82533 4.97605 2.86907C5.9441 1.90102 7.11876 1.41699 8.5 1.41699C9.88126 1.41699 11.05 1.90102 12.0063 2.86907C12.9743 3.82533 13.4583 4.99408 13.4583 6.37533C13.4583 7.44963 13.2517 8.34685 12.8385 9.06699C12.4372 9.77533 11.9708 10.4778 11.4396 11.1743C10.8021 12.0243 10.3181 12.7326 9.9875 13.2993C9.66876 13.8541 9.40313 14.4444 9.19063 15.0701C9.1316 15.2354 9.03716 15.3653 8.9073 15.4597C8.78924 15.5423 8.65348 15.5837 8.5 15.5837ZM8.5 8.14616C8.99584 8.14616 9.41494 7.97498 9.7573 7.63262C10.0997 7.29026 10.2708 6.87116 10.2708 6.37533C10.2708 5.87949 10.0997 5.46039 9.7573 5.11803C9.41494 4.77567 8.99584 4.60449 8.5 4.60449C8.00417 4.60449 7.58507 4.77567 7.24271 5.11803C6.90035 5.46039 6.72917 5.87949 6.72917 6.37533C6.72917 6.87116 6.90035 7.29026 7.24271 7.63262C7.58507 7.97498 8.00417 8.14616 8.5 8.14616Z" fill="url(#paint0_linear_1890_926)" style=""/>
<defs>
<linearGradient id="paint0_linear_1890_926" x1="8.5" y1="1.41699" x2="8.5" y2="15.5837" gradientUnits="userSpaceOnUse">
<stop stop-color="#B425DA" style="stop-color:#B425DA;stop-color:color(display-p3 0.7059 0.1451 0.8549);stop-opacity:1;"/>
<stop offset="1" stop-color="#4185DD" style="stop-color:#4185DD;stop-color:color(display-p3 0.2549 0.5216 0.8667);stop-opacity:1;"/>
</linearGradient>
</defs>
</svg>
