<svg width="17" height="17" viewBox="0 0 17 17" fill="none" xmlns="http://www.w3.org/2000/svg">
<path d="M13.4583 5.66699C12.8681 5.66699 12.3663 5.46039 11.9531 5.0472C11.5399 4.63401 11.3333 4.13227 11.3333 3.54199C11.3333 2.95171 11.5399 2.44998 11.9531 2.03678C12.3663 1.62359 12.8681 1.41699 13.4583 1.41699C14.0486 1.41699 14.5504 1.62359 14.9635 2.03678C15.3767 2.44998 15.5833 2.95171 15.5833 3.54199C15.5833 4.13227 15.3767 4.63401 14.9635 5.0472C14.5504 5.46039 14.0486 5.66699 13.4583 5.66699ZM2.83334 14.167C2.44376 14.167 2.11025 14.0283 1.83282 13.7508C1.55539 13.4734 1.41667 13.1399 1.41667 12.7503V4.25033C1.41667 3.86074 1.55539 3.52724 1.83282 3.2498C2.11025 2.97237 2.44376 2.83366 2.83334 2.83366H9.9875C9.94028 3.06977 9.91667 3.30588 9.91667 3.54199C9.91667 3.7781 9.94028 4.01421 9.9875 4.25033C10.0701 4.6281 10.2059 4.97932 10.3948 5.30397C10.5837 5.62862 10.8139 5.91491 11.0854 6.16283L8.5 7.79199L2.83334 4.25033V5.66699L8.5 9.20866L12.2365 6.87116C12.4372 6.94199 12.6379 6.99512 12.8385 7.03053C13.0392 7.06595 13.2458 7.08366 13.4583 7.08366C13.8361 7.08366 14.208 7.02463 14.574 6.90658C14.9399 6.78852 15.2764 6.61144 15.5833 6.37533V12.7503C15.5833 13.1399 15.4446 13.4734 15.1672 13.7508C14.8898 14.0283 14.5563 14.167 14.1667 14.167H2.83334Z" fill="url(#paint0_linear_1891_931)" style=""/>
<defs>
<linearGradient id="paint0_linear_1891_931" x1="8.5" y1="1.41699" x2="8.5" y2="14.167" gradientUnits="userSpaceOnUse">
<stop stop-color="#B425DA" style="stop-color:#B425DA;stop-color:color(display-p3 0.7059 0.1451 0.8549);stop-opacity:1;"/>
<stop offset="1" stop-color="#4185DD" style="stop-color:#4185DD;stop-color:color(display-p3 0.2549 0.5216 0.8667);stop-opacity:1;"/>
</linearGradient>
</defs>
</svg>
