<svg width="35" height="35" viewBox="0 0 35 35" fill="none" xmlns="http://www.w3.org/2000/svg">
<g clip-path="url(#clip0_1811_940)">
<path d="M21.9479 7.29134C23.3723 7.56925 24.6814 8.26588 25.7076 9.29208C26.7338 10.3183 27.4304 11.6274 27.7083 13.0518M21.9479 1.45801C24.9073 1.78677 27.6669 3.11201 29.7737 5.21614C31.8805 7.32027 33.2092 10.0782 33.5417 13.0372M32.0833 24.6747V29.0497C32.085 29.4558 32.0018 29.8578 31.8391 30.23C31.6764 30.6021 31.4377 30.9362 31.1385 31.2107C30.8392 31.4853 30.4858 31.6943 30.1011 31.8245C29.7164 31.9546 29.3087 32.0029 28.9042 31.9663C24.4166 31.4787 20.106 29.9453 16.3188 27.4893C12.7952 25.2502 9.80779 22.2628 7.56875 18.7393C5.10414 14.9348 3.57036 10.6032 3.09167 6.09551C3.05523 5.69223 3.10316 5.28578 3.2324 4.90204C3.36165 4.5183 3.56938 4.16568 3.84237 3.86662C4.11536 3.56756 4.44764 3.32863 4.81803 3.16502C5.18843 3.00141 5.58883 2.91672 5.99375 2.91634H10.3688C11.0765 2.90938 11.7626 3.16 12.2992 3.62149C12.8359 4.08299 13.1864 4.72387 13.2854 5.42467C13.4701 6.82477 13.8125 8.19948 14.3063 9.52259C14.5025 10.0446 14.5449 10.6118 14.4286 11.1572C14.3123 11.7026 14.0421 12.2032 13.65 12.5997L11.7979 14.4518C13.8739 18.1028 16.8969 21.1257 20.5479 23.2018L22.4 21.3497C22.7965 20.9576 23.2971 20.6874 23.8425 20.5711C24.3878 20.4547 24.9551 20.4972 25.4771 20.6934C26.8002 21.1871 28.1749 21.5296 29.575 21.7143C30.2834 21.8142 30.9304 22.171 31.3929 22.7169C31.8553 23.2627 32.1011 23.9595 32.0833 24.6747Z" stroke="url(#paint0_linear_1811_940)" style="" stroke-width="4" stroke-linecap="round" stroke-linejoin="round"/>
</g>
<defs>
<linearGradient id="paint0_linear_1811_940" x1="18.3108" y1="1.45801" x2="18.3108" y2="31.9782" gradientUnits="userSpaceOnUse">
<stop stop-color="#B425DA" style="stop-color:#B425DA;stop-color:color(display-p3 0.7059 0.1451 0.8549);stop-opacity:1;"/>
<stop offset="1" stop-color="#4185DD" style="stop-color:#4185DD;stop-color:color(display-p3 0.2549 0.5216 0.8667);stop-opacity:1;"/>
</linearGradient>
<clipPath id="clip0_1811_940">
<rect width="35" height="35" fill="white" style="fill:white;fill-opacity:1;"/>
</clipPath>
</defs>
</svg>
